# Blender 4.0.2
# www.blender.org
mtllib default_tree_1.mtl
o VoxelMesh0
v -2.500000 5.250000 0.625000
v -2.500000 5.250000 -2.625000
v -2.500000 7.500000 -2.625000
v -2.500000 7.500000 0.625000
v -2.250000 5.000000 0.875000
v -2.250000 5.000000 -2.875000
v -2.250000 5.250000 -2.875000
v -2.250000 5.250000 0.875000
v -2.250000 5.250000 0.625000
v -2.250000 7.750000 0.625000
v -2.250000 7.750000 0.875000
v -2.250000 5.250000 -2.625000
v -2.250000 7.750000 -2.875000
v -2.250000 7.750000 -2.625000
v -2.250000 7.500000 0.625000
v -2.250000 7.500000 -2.625000
v -2.000000 5.250000 1.125000
v -2.000000 5.250000 0.875000
v -2.000000 7.500000 0.875000
v -2.000000 7.500000 1.125000
v -2.000000 5.250000 -2.875000
v -2.000000 5.250000 -3.125000
v -2.000000 7.500000 -3.125000
v -2.000000 7.500000 -2.875000
v -2.000000 7.750000 0.625000
v -2.000000 7.750000 -2.625000
v -2.000000 8.000000 -2.625000
v -2.000000 8.000000 0.625000
v -1.500000 4.750000 2.625000
v -1.500000 4.750000 -0.125000
v -1.500000 5.000000 -0.125000
v -1.500000 5.000000 2.625000
v -1.500000 5.000000 0.875000
v -1.500000 5.250000 0.875000
v -1.500000 5.250000 2.625000
v -1.500000 5.250000 1.125000
v -1.500000 6.250000 1.125000
v -1.500000 6.250000 2.625000
v -1.250000 4.500000 2.875000
v -1.250000 4.500000 -0.375000
v -1.250000 4.750000 -0.375000
v -1.250000 4.750000 2.875000
v -1.250000 4.750000 2.625000
v -1.250000 6.500000 2.625000
v -1.250000 6.500000 2.875000
v -1.250000 4.750000 -0.125000
v -1.250000 5.000000 -0.375000
v -1.250000 5.000000 -0.125000
v -1.250000 6.250000 2.625000
v -1.250000 6.250000 1.125000
v -1.250000 6.500000 1.125000
v -1.000000 4.750000 3.125000
v -1.000000 4.750000 2.875000
v -1.000000 6.250000 2.875000
v -1.000000 6.250000 3.125000
v -1.000000 6.500000 2.625000
v -1.000000 6.500000 1.125000
v -1.000000 6.750000 1.125000
v -1.000000 6.750000 2.625000
v -0.750000 0.000000 -0.375000
v -0.750000 0.000000 -0.875000
v -0.750000 0.250000 -0.875000
v -0.750000 0.250000 -0.375000
v -0.500000 0.000000 -0.875000
v -0.500000 0.000000 -1.375000
v -0.500000 5.000000 -1.375000
v -0.500000 5.000000 -0.875000
v -0.500000 0.250000 -0.375000
v -0.500000 0.250000 -0.875000
v -0.500000 5.000000 -0.375000
v -0.250000 0.000000 -0.125000
v -0.250000 0.000000 -0.375000
v -0.250000 0.250000 -0.375000
v -0.250000 0.250000 -0.125000
v -0.250000 0.000000 -1.375000
v -0.250000 0.000000 -1.625000
v -0.250000 0.250000 -1.625000
v -0.250000 0.250000 -1.375000
v -0.250000 3.500000 1.375000
v -0.250000 3.500000 -0.375000
v -0.250000 4.000000 -0.375000
v -0.250000 4.000000 1.375000
v -0.250000 4.000000 0.875000
v -0.250000 4.500000 0.875000
v -0.250000 4.500000 1.375000
v 0.250000 0.000000 -0.125000
v 0.250000 0.000000 -0.375000
v 0.250000 0.250000 -0.375000
v 0.250000 0.250000 -0.125000
v 0.250000 0.000000 -1.375000
v 0.250000 0.000000 -1.625000
v 0.250000 0.250000 -1.625000
v 0.250000 0.250000 -1.375000
v 0.250000 3.500000 1.375000
v 0.250000 3.500000 -0.375000
v 0.250000 4.000000 -0.375000
v 0.250000 4.000000 1.375000
v 0.250000 4.000000 0.875000
v 0.250000 4.500000 0.875000
v 0.250000 4.500000 1.375000
v 0.500000 0.000000 -0.375000
v 0.500000 0.000000 -0.875000
v 0.500000 5.000000 -0.875000
v 0.500000 5.000000 -0.375000
v 0.500000 0.250000 -0.875000
v 0.500000 0.250000 -1.375000
v 0.500000 5.000000 -1.375000
v 0.750000 0.000000 -0.875000
v 0.750000 0.000000 -1.375000
v 0.750000 0.250000 -1.375000
v 0.750000 0.250000 -0.875000
v 1.000000 4.750000 3.125000
v 1.000000 4.750000 2.875000
v 1.000000 6.250000 2.875000
v 1.000000 6.250000 3.125000
v 1.000000 6.500000 2.625000
v 1.000000 6.500000 1.125000
v 1.000000 6.750000 1.125000
v 1.000000 6.750000 2.625000
v 1.250000 4.500000 2.875000
v 1.250000 4.500000 -0.375000
v 1.250000 4.750000 -0.375000
v 1.250000 4.750000 2.875000
v 1.250000 4.750000 2.625000
v 1.250000 6.500000 2.625000
v 1.250000 6.500000 2.875000
v 1.250000 4.750000 -0.125000
v 1.250000 5.000000 -0.375000
v 1.250000 5.000000 -0.125000
v 1.250000 6.250000 2.625000
v 1.250000 6.250000 1.125000
v 1.250000 6.500000 1.125000
v 1.500000 4.750000 2.625000
v 1.500000 4.750000 -0.125000
v 1.500000 5.000000 -0.125000
v 1.500000 5.000000 2.625000
v 1.500000 5.000000 0.875000
v 1.500000 5.250000 0.875000
v 1.500000 5.250000 2.625000
v 1.500000 5.250000 1.125000
v 1.500000 6.250000 1.125000
v 1.500000 6.250000 2.625000
v 2.000000 5.250000 1.125000
v 2.000000 5.250000 0.875000
v 2.000000 7.500000 0.875000
v 2.000000 7.500000 1.125000
v 2.000000 5.250000 -2.875000
v 2.000000 5.250000 -3.125000
v 2.000000 7.500000 -3.125000
v 2.000000 7.500000 -2.875000
v 2.000000 7.750000 0.625000
v 2.000000 7.750000 -2.625000
v 2.000000 8.000000 -2.625000
v 2.000000 8.000000 0.625000
v 2.250000 5.000000 0.875000
v 2.250000 5.000000 -2.875000
v 2.250000 5.250000 -2.875000
v 2.250000 5.250000 0.875000
v 2.250000 5.250000 0.625000
v 2.250000 7.750000 0.625000
v 2.250000 7.750000 0.875000
v 2.250000 5.250000 -2.625000
v 2.250000 7.750000 -2.875000
v 2.250000 7.750000 -2.625000
v 2.250000 7.500000 0.625000
v 2.250000 7.500000 -2.625000
v 2.500000 5.250000 0.625000
v 2.500000 5.250000 -2.625000
v 2.500000 7.500000 -2.625000
v 2.500000 7.500000 0.625000
v -1.000000 6.500000 2.875000
v -1.000000 4.500000 2.875000
v 1.250000 6.250000 2.875000
v -1.500000 7.500000 1.125000
v -1.250000 7.500000 1.125000
v -1.000000 7.500000 1.125000
v 2.000000 6.750000 1.125000
v 2.000000 6.500000 1.125000
v 2.000000 6.250000 1.125000
v -2.000000 7.750000 0.875000
v -2.000000 5.000000 0.875000
v 2.250000 7.500000 0.875000
v -0.500000 4.500000 -0.375000
v -0.250000 4.500000 -0.375000
v 0.500000 3.500000 -0.375000
v 0.500000 0.250000 -0.375000
v 0.500000 4.500000 -0.375000
v 0.500000 4.000000 -0.375000
v -0.250000 5.000000 -1.375000
v -2.000000 7.750000 -2.875000
v -2.000000 5.000000 -2.875000
v 2.250000 7.500000 -2.875000
v -0.250000 0.000000 -0.875000
v 0.500000 0.000000 -1.375000
v 1.250000 4.500000 1.375000
v -1.250000 4.500000 1.375000
v 0.250000 4.500000 -0.375000
v -1.500000 5.000000 -2.875000
v 1.500000 5.000000 -2.875000
v -1.250000 5.000000 -2.875000
v 1.250000 5.000000 -2.875000
v -0.500000 5.000000 -2.875000
v 0.500000 5.000000 -2.875000
v 2.000000 7.750000 -2.875000
vn -1.0000 -0.0000 -0.0000
vn 1.0000 -0.0000 -0.0000
vn -0.0000 -0.0000 1.0000
vn -0.0000 -0.0000 -1.0000
vn -0.0000 -1.0000 -0.0000
vn -0.0000 1.0000 -0.0000
vt 0.900000 0.500000
vt 0.700000 0.500000
vt 0.500000 0.500000
vt 0.300000 0.500000
vt 0.100000 0.500000
s 0
usemtl Mat0
f 3/1/1 2/1/1 1/1/1
f 4/1/1 3/1/1 1/1/1
f 7/2/1 6/2/1 5/2/1
f 8/2/1 7/2/1 5/2/1
f 10/2/1 9/2/1 8/2/1
f 11/2/1 10/2/1 8/2/1
f 13/2/1 7/2/1 12/2/1
f 14/2/1 13/2/1 12/2/1
f 14/2/1 16/2/1 15/2/1
f 10/2/1 14/2/1 15/2/1
f 19/1/1 18/1/1 17/1/1
f 20/1/1 19/1/1 17/1/1
f 23/1/1 22/1/1 21/1/1
f 24/1/1 23/1/1 21/1/1
f 27/1/1 26/1/1 25/1/1
f 28/1/1 27/1/1 25/1/1
f 31/3/1 30/3/1 29/3/1
f 32/3/1 31/3/1 29/3/1
f 34/3/1 33/3/1 32/3/1
f 35/3/1 34/3/1 32/3/1
f 37/3/1 36/3/1 35/3/1
f 38/3/1 37/3/1 35/3/1
f 41/4/1 40/4/1 39/4/1
f 42/4/1 41/4/1 39/4/1
f 44/4/1 43/4/1 42/4/1
f 45/4/1 44/4/1 42/4/1
f 47/4/1 41/4/1 46/4/1
f 48/4/1 47/4/1 46/4/1
f 51/4/1 50/4/1 49/4/1
f 44/4/1 51/4/1 49/4/1
f 54/3/1 53/3/1 52/3/1
f 55/3/1 54/3/1 52/3/1
f 58/3/1 57/3/1 56/3/1
f 59/3/1 58/3/1 56/3/1
f 62/5/1 61/5/1 60/5/1
f 63/5/1 62/5/1 60/5/1
f 66/5/1 65/5/1 64/5/1
f 67/5/1 66/5/1 64/5/1
f 67/5/1 69/5/1 68/5/1
f 70/5/1 67/5/1 68/5/1
f 73/5/1 72/5/1 71/5/1
f 74/5/1 73/5/1 71/5/1
f 77/5/1 76/5/1 75/5/1
f 78/5/1 77/5/1 75/5/1
f 81/5/1 80/5/1 79/5/1
f 82/5/1 81/5/1 79/5/1
f 84/5/1 83/5/1 82/5/1
f 85/5/1 84/5/1 82/5/1
f 86/5/2 87/5/2 88/5/2
f 86/5/2 88/5/2 89/5/2
f 90/5/2 91/5/2 92/5/2
f 90/5/2 92/5/2 93/5/2
f 94/5/2 95/5/2 96/5/2
f 94/5/2 96/5/2 97/5/2
f 97/5/2 98/5/2 99/5/2
f 97/5/2 99/5/2 100/5/2
f 101/5/2 102/5/2 103/5/2
f 101/5/2 103/5/2 104/5/2
f 105/5/2 106/5/2 107/5/2
f 105/5/2 107/5/2 103/5/2
f 108/5/2 109/5/2 110/5/2
f 108/5/2 110/5/2 111/5/2
f 112/3/2 113/3/2 114/3/2
f 112/3/2 114/3/2 115/3/2
f 116/3/2 117/3/2 118/3/2
f 116/3/2 118/3/2 119/3/2
f 120/4/2 121/4/2 122/4/2
f 120/4/2 122/4/2 123/4/2
f 123/4/2 124/4/2 125/4/2
f 123/4/2 125/4/2 126/4/2
f 127/4/2 122/4/2 128/4/2
f 127/4/2 128/4/2 129/4/2
f 130/4/2 131/4/2 132/4/2
f 130/4/2 132/4/2 125/4/2
f 133/3/2 134/3/2 135/3/2
f 133/3/2 135/3/2 136/3/2
f 136/3/2 137/3/2 138/3/2
f 136/3/2 138/3/2 139/3/2
f 139/3/2 140/3/2 141/3/2
f 139/3/2 141/3/2 142/3/2
f 143/1/2 144/1/2 145/1/2
f 143/1/2 145/1/2 146/1/2
f 147/1/2 148/1/2 149/1/2
f 147/1/2 149/1/2 150/1/2
f 151/1/2 152/1/2 153/1/2
f 151/1/2 153/1/2 154/1/2
f 155/2/2 156/2/2 157/2/2
f 155/2/2 157/2/2 158/2/2
f 158/2/2 159/2/2 160/2/2
f 158/2/2 160/2/2 161/2/2
f 162/2/2 157/2/2 163/2/2
f 162/2/2 163/2/2 164/2/2
f 165/2/2 166/2/2 164/2/2
f 165/2/2 164/2/2 160/2/2
f 167/1/2 168/1/2 169/1/2
f 167/1/2 169/1/2 170/1/2
f 115/3/3 55/3/3 52/3/3
f 112/3/3 115/3/3 52/3/3
f 171/4/3 45/4/3 39/4/3
f 172/4/3 171/4/3 39/4/3
f 123/4/3 53/4/3 172/4/3
f 120/4/3 123/4/3 172/4/3
f 126/4/3 171/4/3 54/4/3
f 173/4/3 126/4/3 54/4/3
f 173/4/3 114/4/3 113/4/3
f 123/4/3 173/4/3 113/4/3
f 49/3/3 38/3/3 29/3/3
f 43/3/3 49/3/3 29/3/3
f 119/3/3 59/3/3 56/3/3
f 116/3/3 119/3/3 56/3/3
f 142/3/3 130/3/3 124/3/3
f 133/3/3 142/3/3 124/3/3
f 100/5/3 85/5/3 79/5/3
f 94/5/3 100/5/3 79/5/3
f 174/1/3 20/1/3 17/1/3
f 36/1/3 174/1/3 17/1/3
f 175/1/3 174/1/3 37/1/3
f 50/1/3 175/1/3 37/1/3
f 176/1/3 175/1/3 51/1/3
f 57/1/3 176/1/3 51/1/3
f 146/1/3 176/1/3 58/1/3
f 177/1/3 146/1/3 58/1/3
f 177/1/3 118/1/3 117/1/3
f 178/1/3 177/1/3 117/1/3
f 178/1/3 132/1/3 131/1/3
f 179/1/3 178/1/3 131/1/3
f 179/1/3 141/1/3 140/1/3
f 143/1/3 179/1/3 140/1/3
f 180/2/3 11/2/3 5/2/3
f 181/2/3 180/2/3 5/2/3
f 34/2/3 18/2/3 181/2/3
f 33/2/3 34/2/3 181/2/3
f 161/2/3 180/2/3 19/2/3
f 182/2/3 161/2/3 19/2/3
f 83/5/4 84/5/4 99/5/4
f 83/5/4 99/5/4 98/5/4
f 158/2/3 138/2/3 137/2/3
f 155/2/3 158/2/3 137/2/3
f 182/2/3 145/2/3 144/2/3
f 158/2/3 182/2/3 144/2/3
f 15/1/3 4/1/3 1/1/3
f 9/1/3 15/1/3 1/1/3
f 154/1/3 28/1/3 25/1/3
f 151/1/3 154/1/3 25/1/3
f 170/1/3 165/1/3 159/1/3
f 167/1/3 170/1/3 159/1/3
f 30/3/4 31/3/4 48/3/4
f 30/3/4 48/3/4 46/3/4
f 89/5/3 74/5/3 71/5/3
f 86/5/3 89/5/3 71/5/3
f 127/3/4 129/3/4 135/3/4
f 127/3/4 135/3/4 134/3/4
f 40/4/4 47/4/4 70/4/4
f 40/4/4 70/4/4 183/4/4
f 73/5/3 63/5/3 60/5/3
f 72/5/3 73/5/3 60/5/3
f 184/5/3 183/5/3 68/5/3
f 73/5/3 184/5/3 68/5/3
f 185/5/3 80/5/3 73/5/3
f 186/5/3 185/5/3 73/5/3
f 187/5/3 184/5/3 81/5/3
f 188/5/3 187/5/3 81/5/3
f 186/5/3 88/5/3 87/5/3
f 101/5/3 186/5/3 87/5/3
f 188/5/3 96/5/3 95/5/3
f 185/5/3 188/5/3 95/5/3
f 187/4/4 104/4/4 128/4/4
f 187/4/4 128/4/4 121/4/4
f 61/5/4 62/5/4 69/5/4
f 61/5/4 69/5/4 64/5/4
f 111/5/3 105/5/3 102/5/3
f 108/5/3 111/5/3 102/5/3
f 65/5/4 66/5/4 189/5/4
f 65/5/4 189/5/4 75/5/4
f 78/5/4 189/5/4 107/5/4
f 78/5/4 107/5/4 106/5/4
f 90/5/4 93/5/4 110/5/4
f 90/5/4 110/5/4 109/5/4
f 76/5/4 77/5/4 92/5/4
f 76/5/4 92/5/4 91/5/4
f 2/1/4 3/1/4 16/1/4
f 2/1/4 16/1/4 12/1/4
f 26/1/4 27/1/4 153/1/4
f 26/1/4 153/1/4 152/1/4
f 162/1/4 166/1/4 169/1/4
f 162/1/4 169/1/4 168/1/4
f 6/2/4 13/2/4 190/2/4
f 6/2/4 190/2/4 191/2/4
f 191/2/4 21/2/4 157/2/4
f 191/2/4 157/2/4 156/2/4
f 24/2/4 190/2/4 163/2/4
f 24/2/4 163/2/4 192/2/4
f 147/2/4 150/2/4 192/2/4
f 147/2/4 192/2/4 157/2/4
f 22/1/4 23/1/4 149/1/4
f 22/1/4 149/1/4 148/1/4
f 91/5/5 86/5/5 71/5/5
f 76/5/5 91/5/5 71/5/5
f 193/5/5 72/5/5 60/5/5
f 61/5/5 193/5/5 60/5/5
f 194/5/5 101/5/5 87/5/5
f 90/5/5 194/5/5 87/5/5
f 75/5/5 193/5/5 64/5/5
f 65/5/5 75/5/5 64/5/5
f 109/5/5 108/5/5 102/5/5
f 194/5/5 109/5/5 102/5/5
f 74/5/6 89/5/6 88/5/6
f 74/5/6 88/5/6 73/5/6
f 63/5/6 68/5/6 69/5/6
f 63/5/6 69/5/6 62/5/6
f 105/5/6 111/5/6 110/5/6
f 105/5/6 110/5/6 106/5/6
f 78/5/6 93/5/6 92/5/6
f 78/5/6 92/5/6 77/5/6
f 95/5/5 94/5/5 79/5/5
f 80/5/5 95/5/5 79/5/5
f 83/5/6 98/5/6 96/5/6
f 83/5/6 96/5/6 81/5/6
f 195/4/5 120/4/5 39/4/5
f 196/4/5 195/4/5 39/4/5
f 184/4/5 85/4/5 196/4/5
f 40/4/5 184/4/5 196/4/5
f 121/4/5 195/4/5 100/4/5
f 197/4/5 121/4/5 100/4/5
f 197/4/5 99/4/5 84/4/5
f 184/4/5 197/4/5 84/4/5
f 113/3/5 112/3/5 52/3/5
f 53/3/5 113/3/5 52/3/5
f 46/3/5 43/3/5 29/3/5
f 30/3/5 46/3/5 29/3/5
f 134/3/5 133/3/5 124/3/5
f 127/3/5 134/3/5 124/3/5
f 198/2/5 33/2/5 5/2/5
f 6/2/5 198/2/5 5/2/5
f 156/2/5 155/2/5 137/2/5
f 199/2/5 156/2/5 137/2/5
f 200/2/5 48/2/5 31/2/5
f 198/2/5 200/2/5 31/2/5
f 199/2/5 135/2/5 129/2/5
f 201/2/5 199/2/5 129/2/5
f 202/2/5 70/2/5 47/2/5
f 200/2/5 202/2/5 47/2/5
f 201/2/5 128/2/5 104/2/5
f 203/2/5 201/2/5 104/2/5
f 203/2/5 107/2/5 66/2/5
f 202/2/5 203/2/5 66/2/5
f 34/1/5 36/1/5 17/1/5
f 18/1/5 34/1/5 17/1/5
f 144/1/5 143/1/5 140/1/5
f 138/1/5 144/1/5 140/1/5
f 12/1/5 9/1/5 1/1/5
f 2/1/5 12/1/5 1/1/5
f 168/1/5 167/1/5 159/1/5
f 162/1/5 168/1/5 159/1/5
f 148/1/5 147/1/5 21/1/5
f 22/1/5 148/1/5 21/1/5
f 55/3/6 115/3/6 114/3/6
f 55/3/6 114/3/6 54/3/6
f 38/3/6 49/3/6 50/3/6
f 38/3/6 50/3/6 37/3/6
f 130/3/6 142/3/6 141/3/6
f 130/3/6 141/3/6 131/3/6
f 45/4/6 126/4/6 125/4/6
f 45/4/6 125/4/6 44/4/6
f 44/4/6 56/4/6 57/4/6
f 44/4/6 57/4/6 51/4/6
f 116/4/6 125/4/6 132/4/6
f 116/4/6 132/4/6 117/4/6
f 59/3/6 119/3/6 118/3/6
f 59/3/6 118/3/6 58/3/6
f 20/1/6 146/1/6 145/1/6
f 20/1/6 145/1/6 19/1/6
f 4/1/6 15/1/6 16/1/6
f 4/1/6 16/1/6 3/1/6
f 165/1/6 170/1/6 169/1/6
f 165/1/6 169/1/6 166/1/6
f 24/1/6 150/1/6 149/1/6
f 24/1/6 149/1/6 23/1/6
f 11/2/6 161/2/6 160/2/6
f 11/2/6 160/2/6 10/2/6
f 10/2/6 25/2/6 190/2/6
f 10/2/6 190/2/6 13/2/6
f 151/2/6 160/2/6 163/2/6
f 151/2/6 163/2/6 204/2/6
f 26/2/6 152/2/6 204/2/6
f 26/2/6 204/2/6 190/2/6
f 28/1/6 154/1/6 153/1/6
f 28/1/6 153/1/6 27/1/6
